<svg xmlns="http://www.w3.org/2000/svg" width="375" viewBox="0 0 375 375" height="375" version="1.0"><defs><clipPath id="a"><path d="M 163 133.746094 L 201 133.746094 L 201 196.746094 L 163 196.746094 Z M 163 133.746094"/></clipPath><clipPath id="b"><path d="M 196 133.746094 L 262.5 133.746094 L 262.5 196.746094 L 196 196.746094 Z M 196 133.746094"/></clipPath><clipPath id="c"><path d="M 112.5 133.746094 L 179 133.746094 L 179 196.746094 L 112.5 196.746094 Z M 112.5 133.746094"/></clipPath><clipPath id="d"><path d="M 112.5 210.464844 L 134.25 210.464844 L 134.25 232.214844 L 112.5 232.214844 Z M 112.5 210.464844"/></clipPath></defs><g clip-path="url(#a)"><path fill="#24292F" d="M 200.164062 159.191406 L 178.480469 196.746094 L 163.765625 171.34375 L 185.476562 133.746094 L 200.164062 159.191406"/></g><g clip-path="url(#b)"><path fill="#ED1C24" d="M 233.046875 133.746094 L 196.550781 196.746094 L 226.144531 196.746094 L 262.519531 133.746094 L 233.046875 133.746094"/></g><g clip-path="url(#c)"><path fill="#ED1C24" d="M 112.515625 133.746094 L 148.886719 196.746094 L 178.480469 196.746094 L 141.984375 133.746094 L 112.515625 133.746094"/></g><g><g><g><path d="M 5.921875 0 L 0.375 -15.375 L 3.0625 -15.375 L 5.984375 -6.640625 C 6.210938 -5.878906 6.445312 -5.117188 6.6875 -4.359375 C 6.9375 -3.609375 7.175781 -2.863281 7.40625 -2.125 L 7.53125 -2.125 C 7.757812 -2.863281 7.988281 -3.609375 8.21875 -4.359375 C 8.457031 -5.117188 8.691406 -5.878906 8.921875 -6.640625 L 11.828125 -15.375 L 14.390625 -15.375 L 8.953125 0 Z M 5.921875 0" transform="translate(142.77 230.113)"/></g></g></g><g><g><g><path d="M 2.59375 0 L 2.59375 -15.375 L 5.1875 -15.375 L 5.1875 0 Z M 3.921875 -18.546875 C 3.410156 -18.546875 2.984375 -18.703125 2.640625 -19.015625 C 2.296875 -19.328125 2.125 -19.726562 2.125 -20.21875 C 2.125 -20.726562 2.296875 -21.132812 2.640625 -21.4375 C 2.984375 -21.738281 3.410156 -21.890625 3.921875 -21.890625 C 4.429688 -21.890625 4.859375 -21.738281 5.203125 -21.4375 C 5.554688 -21.132812 5.734375 -20.726562 5.734375 -20.21875 C 5.734375 -19.726562 5.554688 -19.328125 5.203125 -19.015625 C 4.859375 -18.703125 4.429688 -18.546875 3.921875 -18.546875 Z M 3.921875 -18.546875" transform="translate(157.54 230.113)"/></g></g></g><g><g><g><path d="M 7.4375 0.375 C 6.613281 0.375 5.921875 0.25 5.359375 0 C 4.804688 -0.25 4.351562 -0.59375 4 -1.03125 C 3.65625 -1.476562 3.40625 -2.019531 3.25 -2.65625 C 3.101562 -3.289062 3.03125 -3.988281 3.03125 -4.75 L 3.03125 -13.25 L 0.765625 -13.25 L 0.765625 -15.21875 L 3.15625 -15.375 L 3.484375 -19.6875 L 5.65625 -19.6875 L 5.65625 -15.375 L 9.8125 -15.375 L 9.8125 -13.25 L 5.65625 -13.25 L 5.65625 -4.71875 C 5.65625 -3.769531 5.828125 -3.035156 6.171875 -2.515625 C 6.523438 -1.992188 7.144531 -1.734375 8.03125 -1.734375 C 8.3125 -1.734375 8.609375 -1.773438 8.921875 -1.859375 C 9.234375 -1.953125 9.519531 -2.050781 9.78125 -2.15625 L 10.28125 -0.1875 C 9.863281 -0.0390625 9.40625 0.0859375 8.90625 0.203125 C 8.40625 0.316406 7.914062 0.375 7.4375 0.375 Z M 7.4375 0.375" transform="translate(165.321 230.113)"/></g></g></g><g><g><g><path d="M 8.578125 0.375 C 7.628906 0.375 6.726562 0.195312 5.875 -0.15625 C 5.019531 -0.519531 4.265625 -1.039062 3.609375 -1.71875 C 2.953125 -2.40625 2.425781 -3.25 2.03125 -4.25 C 1.644531 -5.257812 1.453125 -6.394531 1.453125 -7.65625 C 1.453125 -8.945312 1.644531 -10.09375 2.03125 -11.09375 C 2.425781 -12.09375 2.953125 -12.941406 3.609375 -13.640625 C 4.265625 -14.335938 5.019531 -14.863281 5.875 -15.21875 C 6.726562 -15.570312 7.628906 -15.75 8.578125 -15.75 C 9.523438 -15.75 10.425781 -15.570312 11.28125 -15.21875 C 12.132812 -14.863281 12.882812 -14.335938 13.53125 -13.640625 C 14.1875 -12.941406 14.707031 -12.09375 15.09375 -11.09375 C 15.488281 -10.09375 15.6875 -8.945312 15.6875 -7.65625 C 15.6875 -6.394531 15.488281 -5.257812 15.09375 -4.25 C 14.707031 -3.25 14.1875 -2.40625 13.53125 -1.71875 C 12.882812 -1.039062 12.132812 -0.519531 11.28125 -0.15625 C 10.425781 0.195312 9.523438 0.375 8.578125 0.375 Z M 8.578125 -1.765625 C 9.234375 -1.765625 9.832031 -1.90625 10.375 -2.1875 C 10.925781 -2.476562 11.394531 -2.878906 11.78125 -3.390625 C 12.175781 -3.910156 12.476562 -4.53125 12.6875 -5.25 C 12.894531 -5.96875 13 -6.769531 13 -7.65625 C 13 -8.539062 12.894531 -9.347656 12.6875 -10.078125 C 12.476562 -10.804688 12.175781 -11.429688 11.78125 -11.953125 C 11.394531 -12.484375 10.925781 -12.890625 10.375 -13.171875 C 9.832031 -13.460938 9.234375 -13.609375 8.578125 -13.609375 C 7.921875 -13.609375 7.316406 -13.460938 6.765625 -13.171875 C 6.222656 -12.890625 5.753906 -12.484375 5.359375 -11.953125 C 4.972656 -11.429688 4.671875 -10.804688 4.453125 -10.078125 C 4.242188 -9.347656 4.140625 -8.539062 4.140625 -7.65625 C 4.140625 -6.769531 4.242188 -5.96875 4.453125 -5.25 C 4.671875 -4.53125 4.972656 -3.910156 5.359375 -3.390625 C 5.753906 -2.878906 6.222656 -2.476562 6.765625 -2.1875 C 7.316406 -1.90625 7.921875 -1.765625 8.578125 -1.765625 Z M 8.578125 -1.765625" transform="translate(176.012 230.113)"/></g></g></g><g><g><g><path d="M 0.984375 0 L 0.984375 -1.390625 L 9.078125 -13.25 L 1.859375 -13.25 L 1.859375 -15.375 L 12.375 -15.375 L 12.375 -13.984375 L 4.265625 -2.125 L 12.625 -2.125 L 12.625 0 Z M 0.984375 0" transform="translate(193.154 230.113)"/></g></g></g><g><g><g><path d="M 3.953125 0.375 C 3.421875 0.375 2.972656 0.191406 2.609375 -0.171875 C 2.242188 -0.546875 2.0625 -1.015625 2.0625 -1.578125 C 2.0625 -2.191406 2.242188 -2.679688 2.609375 -3.046875 C 2.972656 -3.421875 3.421875 -3.609375 3.953125 -3.609375 C 4.460938 -3.609375 4.898438 -3.421875 5.265625 -3.046875 C 5.640625 -2.679688 5.828125 -2.191406 5.828125 -1.578125 C 5.828125 -1.015625 5.640625 -0.546875 5.265625 -0.171875 C 4.898438 0.191406 4.460938 0.375 3.953125 0.375 Z M 3.953125 0.375" transform="translate(206.597 230.113)"/></g></g></g><g><g><g><path d="M 7.84375 0.375 C 5.90625 0.375 4.359375 -0.316406 3.203125 -1.703125 C 2.054688 -3.097656 1.484375 -5.082031 1.484375 -7.65625 C 1.484375 -8.90625 1.664062 -10.03125 2.03125 -11.03125 C 2.40625 -12.03125 2.894531 -12.878906 3.5 -13.578125 C 4.113281 -14.273438 4.820312 -14.8125 5.625 -15.1875 C 6.425781 -15.5625 7.269531 -15.75 8.15625 -15.75 C 9.039062 -15.75 9.8125 -15.59375 10.46875 -15.28125 C 11.125 -14.96875 11.789062 -14.535156 12.46875 -13.984375 L 12.34375 -16.609375 L 12.34375 -22.53125 L 14.96875 -22.53125 L 14.96875 0 L 12.8125 0 L 12.59375 -1.796875 L 12.5 -1.796875 C 11.882812 -1.210938 11.179688 -0.703125 10.390625 -0.265625 C 9.597656 0.160156 8.75 0.375 7.84375 0.375 Z M 8.421875 -1.796875 C 9.128906 -1.796875 9.800781 -1.96875 10.4375 -2.3125 C 11.070312 -2.664062 11.707031 -3.203125 12.34375 -3.921875 L 12.34375 -11.953125 C 11.6875 -12.546875 11.054688 -12.960938 10.453125 -13.203125 C 9.859375 -13.453125 9.242188 -13.578125 8.609375 -13.578125 C 7.992188 -13.578125 7.414062 -13.429688 6.875 -13.140625 C 6.34375 -12.859375 5.875 -12.457031 5.46875 -11.9375 C 5.070312 -11.425781 4.753906 -10.8125 4.515625 -10.09375 C 4.285156 -9.375 4.171875 -8.570312 4.171875 -7.6875 C 4.171875 -5.832031 4.539062 -4.382812 5.28125 -3.34375 C 6.019531 -2.3125 7.066406 -1.796875 8.421875 -1.796875 Z M 8.421875 -1.796875" transform="translate(214.472 230.113)"/></g></g></g><g><g><g><path d="M 8.828125 0.375 C 7.796875 0.375 6.832031 0.191406 5.9375 -0.171875 C 5.039062 -0.546875 4.257812 -1.070312 3.59375 -1.75 C 2.925781 -2.4375 2.398438 -3.273438 2.015625 -4.265625 C 1.640625 -5.265625 1.453125 -6.394531 1.453125 -7.65625 C 1.453125 -8.925781 1.644531 -10.0625 2.03125 -11.0625 C 2.425781 -12.0625 2.945312 -12.910156 3.59375 -13.609375 C 4.238281 -14.304688 4.972656 -14.835938 5.796875 -15.203125 C 6.617188 -15.566406 7.472656 -15.75 8.359375 -15.75 C 9.328125 -15.75 10.195312 -15.582031 10.96875 -15.25 C 11.738281 -14.914062 12.378906 -14.429688 12.890625 -13.796875 C 13.410156 -13.160156 13.804688 -12.398438 14.078125 -11.515625 C 14.347656 -10.628906 14.484375 -9.640625 14.484375 -8.546875 C 14.484375 -8.265625 14.476562 -7.992188 14.46875 -7.734375 C 14.457031 -7.472656 14.429688 -7.25 14.390625 -7.0625 L 4.015625 -7.0625 C 4.117188 -5.414062 4.628906 -4.109375 5.546875 -3.140625 C 6.460938 -2.179688 7.660156 -1.703125 9.140625 -1.703125 C 9.878906 -1.703125 10.5625 -1.8125 11.1875 -2.03125 C 11.8125 -2.257812 12.40625 -2.550781 12.96875 -2.90625 L 13.890625 -1.203125 C 13.210938 -0.773438 12.460938 -0.40625 11.640625 -0.09375 C 10.816406 0.21875 9.878906 0.375 8.828125 0.375 Z M 3.984375 -8.921875 L 12.21875 -8.921875 C 12.21875 -10.484375 11.882812 -11.671875 11.21875 -12.484375 C 10.550781 -13.296875 9.617188 -13.703125 8.421875 -13.703125 C 7.867188 -13.703125 7.34375 -13.59375 6.84375 -13.375 C 6.351562 -13.164062 5.90625 -12.851562 5.5 -12.4375 C 5.101562 -12.03125 4.769531 -11.53125 4.5 -10.9375 C 4.238281 -10.351562 4.066406 -9.679688 3.984375 -8.921875 Z M 3.984375 -8.921875" transform="translate(232.026 230.113)"/></g></g></g><g clip-path="url(#d)"><path d="M 123.394531 210.46875 C 126.601562 210.472656 129.488281 211.871094 131.476562 214.089844 C 131.476562 214.089844 131.476562 214.089844 131.480469 214.09375 C 132.941406 215.726562 133.917969 217.800781 134.179688 220.09375 L 134.179688 220.105469 L 134.183594 220.121094 L 134.183594 220.136719 L 134.1875 220.152344 L 134.1875 220.164062 C 134.191406 220.203125 134.195312 220.242188 134.199219 220.28125 L 134.199219 220.292969 L 134.203125 220.308594 L 134.203125 220.34375 L 134.207031 220.359375 L 134.207031 220.375 L 134.210938 220.390625 L 134.210938 220.402344 C 134.210938 220.425781 134.214844 220.449219 134.214844 220.472656 L 134.21875 220.492188 L 134.21875 220.519531 L 134.222656 220.535156 L 134.222656 220.582031 L 134.226562 220.597656 L 134.226562 220.644531 C 134.230469 220.660156 134.230469 220.679688 134.230469 220.695312 L 134.234375 220.714844 L 134.234375 220.765625 L 134.238281 220.785156 L 134.238281 220.871094 C 134.238281 220.882812 134.242188 220.894531 134.242188 220.90625 L 134.242188 220.976562 L 134.246094 220.992188 L 134.246094 221.082031 L 134.25 221.097656 L 134.25 221.324219 C 134.25 221.332031 134.25 221.335938 134.25 221.34375 L 134.25 221.570312 L 134.246094 221.589844 L 134.246094 221.691406 L 134.242188 221.710938 L 134.242188 221.78125 C 134.242188 221.792969 134.238281 221.804688 134.238281 221.8125 L 134.238281 221.902344 L 134.234375 221.917969 L 134.234375 221.972656 L 134.230469 221.988281 C 134.230469 222.007812 134.230469 222.023438 134.226562 222.039062 L 134.226562 222.09375 L 134.222656 222.101562 L 134.222656 222.152344 L 134.21875 222.167969 L 134.21875 222.199219 L 134.214844 222.214844 C 134.214844 222.234375 134.210938 222.257812 134.210938 222.28125 L 134.210938 222.292969 L 134.207031 222.3125 L 134.207031 222.328125 L 134.203125 222.34375 L 134.203125 222.375 L 134.199219 222.390625 L 134.199219 222.402344 C 134.195312 222.441406 134.191406 222.480469 134.1875 222.523438 L 134.1875 222.535156 L 134.183594 222.550781 L 134.183594 222.566406 L 134.179688 222.582031 L 134.179688 222.589844 C 133.917969 224.882812 132.941406 226.960938 131.480469 228.59375 C 131.476562 228.59375 131.476562 228.59375 131.476562 228.597656 C 129.484375 230.820312 126.589844 232.21875 123.375 232.21875 C 120.160156 232.21875 117.269531 230.820312 115.277344 228.597656 C 115.277344 228.59375 115.273438 228.59375 115.273438 228.59375 C 113.8125 226.960938 112.832031 224.882812 112.570312 222.589844 L 112.570312 222.566406 L 112.566406 222.550781 L 112.566406 222.535156 L 112.5625 222.523438 C 112.558594 222.480469 112.554688 222.441406 112.550781 222.402344 L 112.550781 222.375 L 112.546875 222.359375 L 112.546875 222.34375 L 112.542969 222.328125 L 112.542969 222.292969 L 112.539062 222.28125 C 112.539062 222.257812 112.539062 222.234375 112.535156 222.214844 L 112.535156 222.195312 L 112.53125 222.179688 L 112.53125 222.152344 L 112.527344 222.136719 L 112.527344 222.101562 L 112.523438 222.085938 L 112.523438 222.039062 C 112.523438 222.023438 112.519531 222.007812 112.519531 221.988281 L 112.519531 221.953125 L 112.515625 221.9375 L 112.515625 221.882812 L 112.511719 221.863281 L 112.511719 221.8125 C 112.511719 221.804688 112.507812 221.792969 112.507812 221.78125 L 112.507812 221.710938 L 112.503906 221.691406 L 112.503906 221.484375 L 112.5 221.464844 L 112.5 221.359375 C 112.5 221.355469 112.5 221.347656 112.5 221.34375 L 112.5 221.21875 L 112.503906 221.203125 L 112.503906 220.992188 L 112.507812 220.976562 L 112.507812 220.90625 C 112.507812 220.894531 112.511719 220.882812 112.511719 220.871094 L 112.511719 220.816406 L 112.515625 220.800781 L 112.515625 220.742188 L 112.519531 220.726562 L 112.519531 220.695312 C 112.519531 220.679688 112.523438 220.664062 112.523438 220.644531 L 112.523438 220.59375 L 112.527344 220.582031 L 112.527344 220.550781 L 112.53125 220.535156 L 112.53125 220.503906 L 112.535156 220.484375 L 112.535156 220.472656 C 112.539062 220.449219 112.539062 220.425781 112.539062 220.402344 L 112.542969 220.390625 L 112.542969 220.359375 L 112.546875 220.34375 L 112.546875 220.328125 L 112.550781 220.308594 L 112.550781 220.28125 C 112.554688 220.242188 112.558594 220.203125 112.5625 220.164062 L 112.566406 220.152344 L 112.566406 220.136719 L 112.570312 220.121094 L 112.570312 220.09375 C 112.832031 217.800781 113.8125 215.726562 115.273438 214.09375 C 115.273438 214.089844 115.277344 214.089844 115.277344 214.089844 C 117.265625 211.871094 120.148438 210.472656 123.359375 210.46875 Z M 123.726562 226.957031 L 123.726562 231.488281 C 124.648438 231.351562 125.488281 230.671875 126.191406 229.636719 C 126.628906 228.996094 127.011719 228.222656 127.324219 227.347656 C 126.210938 227.117188 125 226.980469 123.726562 226.957031 Z M 123.023438 226.957031 C 121.753906 226.980469 120.539062 227.117188 119.425781 227.347656 C 119.738281 228.222656 120.121094 228.996094 120.558594 229.636719 C 121.265625 230.671875 122.105469 231.351562 123.023438 231.488281 Z M 118.738281 227.503906 C 117.761719 227.75 116.871094 228.070312 116.101562 228.453125 C 117.425781 229.808594 119.125 230.792969 121.03125 231.242188 C 120.65625 230.914062 120.304688 230.507812 119.976562 230.03125 C 119.5 229.332031 119.078125 228.476562 118.738281 227.503906 Z M 128.011719 227.503906 C 127.671875 228.476562 127.25 229.332031 126.773438 230.03125 C 126.445312 230.507812 126.09375 230.914062 125.722656 231.242188 C 127.625 230.792969 129.324219 229.808594 130.648438 228.453125 C 129.878906 228.070312 128.992188 227.75 128.011719 227.503906 Z M 117.765625 221.695312 L 113.207031 221.695312 L 113.210938 221.707031 L 113.210938 221.8125 L 113.214844 221.828125 L 113.214844 221.882812 L 113.21875 221.898438 L 113.21875 221.945312 L 113.222656 221.957031 L 113.222656 222.011719 L 113.226562 222.027344 L 113.226562 222.089844 L 113.230469 222.101562 L 113.230469 222.128906 L 113.234375 222.140625 L 113.234375 222.171875 L 113.238281 222.1875 L 113.238281 222.21875 L 113.242188 222.230469 L 113.242188 222.261719 L 113.246094 222.273438 L 113.246094 222.316406 L 113.25 222.332031 L 113.25 222.34375 L 113.253906 222.359375 L 113.253906 222.390625 L 113.257812 222.402344 L 113.257812 222.414062 C 113.257812 222.417969 113.261719 222.425781 113.261719 222.429688 L 113.261719 222.457031 L 113.265625 222.472656 L 113.265625 222.503906 L 113.269531 222.519531 L 113.269531 222.53125 C 113.273438 222.546875 113.277344 222.566406 113.277344 222.585938 L 113.28125 222.601562 L 113.28125 222.628906 L 113.285156 222.644531 L 113.285156 222.65625 C 113.289062 222.679688 113.292969 222.703125 113.296875 222.726562 L 113.296875 222.742188 L 113.300781 222.757812 L 113.300781 222.769531 L 113.304688 222.785156 C 113.308594 222.8125 113.3125 222.839844 113.316406 222.867188 L 113.316406 222.882812 L 113.320312 222.898438 C 113.613281 224.792969 114.429688 226.519531 115.613281 227.917969 C 116.449219 227.480469 117.433594 227.113281 118.523438 226.835938 C 118.070312 225.320312 117.796875 223.566406 117.765625 221.695312 Z M 133.539062 221.75 L 133.542969 221.738281 L 133.542969 221.695312 L 128.984375 221.695312 C 128.957031 223.566406 128.679688 225.320312 128.230469 226.835938 C 129.316406 227.113281 130.300781 227.480469 131.136719 227.917969 C 132.324219 226.519531 133.136719 224.792969 133.429688 222.898438 L 133.433594 222.882812 L 133.433594 222.867188 C 133.441406 222.839844 133.445312 222.8125 133.445312 222.785156 L 133.449219 222.769531 L 133.449219 222.753906 L 133.453125 222.742188 L 133.457031 222.726562 C 133.460938 222.703125 133.460938 222.679688 133.464844 222.65625 L 133.464844 222.640625 L 133.46875 222.628906 L 133.46875 222.613281 L 133.472656 222.597656 L 133.472656 222.585938 C 133.476562 222.566406 133.480469 222.546875 133.480469 222.53125 L 133.480469 222.515625 L 133.484375 222.5 L 133.484375 222.484375 L 133.488281 222.46875 L 133.488281 222.441406 L 133.492188 222.429688 C 133.492188 222.425781 133.492188 222.417969 133.492188 222.414062 L 133.496094 222.398438 L 133.496094 222.386719 L 133.5 222.371094 L 133.5 222.324219 L 133.503906 222.3125 L 133.503906 222.285156 L 133.507812 222.273438 L 133.507812 222.257812 L 133.511719 222.242188 L 133.511719 222.210938 L 133.515625 222.195312 L 133.515625 222.140625 L 133.519531 222.128906 L 133.519531 222.097656 L 133.523438 222.082031 L 133.523438 222.058594 L 133.527344 222.042969 L 133.527344 221.996094 L 133.53125 221.980469 L 133.53125 221.898438 L 133.535156 221.882812 L 133.535156 221.835938 L 133.539062 221.820312 Z M 123.023438 226.257812 L 123.023438 221.695312 L 118.46875 221.695312 C 118.496094 223.511719 118.761719 225.214844 119.203125 226.675781 C 120.386719 226.425781 121.675781 226.277344 123.023438 226.257812 Z M 128.285156 221.695312 L 123.726562 221.695312 L 123.726562 226.257812 C 125.078125 226.277344 126.367188 226.425781 127.546875 226.675781 C 127.988281 225.214844 128.253906 223.511719 128.285156 221.695312 Z M 133.429688 219.789062 C 133.136719 217.890625 132.324219 216.167969 131.136719 214.769531 C 130.300781 215.203125 129.316406 215.570312 128.230469 215.847656 C 128.679688 217.363281 128.957031 219.117188 128.984375 220.992188 L 133.542969 220.992188 L 133.542969 220.949219 L 133.539062 220.933594 L 133.539062 220.871094 L 133.535156 220.855469 L 133.535156 220.800781 L 133.53125 220.789062 L 133.53125 220.703125 L 133.527344 220.6875 L 133.527344 220.644531 L 133.523438 220.628906 L 133.523438 220.597656 L 133.519531 220.582031 L 133.519531 220.558594 L 133.515625 220.542969 L 133.515625 220.484375 L 133.511719 220.46875 L 133.511719 220.453125 L 133.507812 220.4375 L 133.507812 220.410156 L 133.503906 220.398438 L 133.503906 220.371094 L 133.5 220.355469 L 133.5 220.324219 L 133.496094 220.308594 L 133.496094 220.28125 L 133.492188 220.269531 C 133.492188 220.265625 133.492188 220.261719 133.492188 220.257812 L 133.488281 220.242188 L 133.488281 220.226562 L 133.484375 220.210938 L 133.484375 220.183594 L 133.480469 220.167969 L 133.480469 220.15625 C 133.480469 220.136719 133.476562 220.117188 133.472656 220.101562 L 133.472656 220.082031 L 133.46875 220.070312 L 133.46875 220.054688 L 133.464844 220.039062 L 133.464844 220.027344 C 133.460938 220.003906 133.460938 219.980469 133.457031 219.957031 L 133.453125 219.941406 L 133.449219 219.929688 L 133.449219 219.914062 L 133.445312 219.902344 C 133.445312 219.871094 133.441406 219.84375 133.433594 219.816406 L 133.433594 219.800781 Z M 127.546875 216.007812 C 126.367188 216.257812 125.078125 216.40625 123.726562 216.429688 L 123.726562 220.992188 L 128.285156 220.992188 C 128.253906 219.171875 127.988281 217.46875 127.546875 216.007812 Z M 118.523438 215.847656 C 117.433594 215.570312 116.449219 215.203125 115.613281 214.769531 C 114.429688 216.167969 113.613281 217.890625 113.320312 219.789062 L 113.316406 219.800781 L 113.316406 219.816406 C 113.3125 219.84375 113.308594 219.871094 113.304688 219.902344 L 113.300781 219.914062 L 113.300781 219.929688 L 113.296875 219.945312 L 113.296875 219.957031 C 113.292969 219.980469 113.289062 220.003906 113.285156 220.027344 L 113.285156 220.042969 L 113.28125 220.058594 L 113.28125 220.085938 L 113.277344 220.101562 C 113.277344 220.117188 113.273438 220.136719 113.269531 220.15625 L 113.269531 220.171875 L 113.265625 220.1875 L 113.265625 220.203125 L 113.261719 220.214844 L 113.261719 220.257812 C 113.261719 220.261719 113.257812 220.265625 113.257812 220.269531 L 113.257812 220.285156 L 113.253906 220.300781 L 113.253906 220.316406 L 113.25 220.332031 L 113.25 220.359375 L 113.246094 220.375 L 113.246094 220.414062 L 113.242188 220.429688 L 113.242188 220.460938 L 113.238281 220.472656 L 113.238281 220.5 L 113.234375 220.511719 L 113.234375 220.542969 L 113.230469 220.558594 L 113.230469 220.589844 L 113.226562 220.605469 L 113.226562 220.65625 L 113.222656 220.671875 L 113.222656 220.71875 L 113.21875 220.734375 L 113.21875 220.789062 L 113.214844 220.800781 L 113.214844 220.847656 L 113.210938 220.863281 L 113.210938 220.980469 L 113.207031 220.992188 L 117.765625 220.992188 C 117.796875 219.117188 118.070312 217.363281 118.523438 215.847656 Z M 119.203125 216.007812 C 118.761719 217.46875 118.496094 219.171875 118.46875 220.992188 L 123.023438 220.992188 L 123.023438 216.429688 C 121.675781 216.40625 120.386719 216.257812 119.203125 216.007812 Z M 123.726562 211.195312 L 123.726562 215.726562 C 125 215.707031 126.210938 215.570312 127.324219 215.339844 C 127.011719 214.460938 126.628906 213.6875 126.191406 213.046875 C 125.488281 212.011719 124.648438 211.332031 123.726562 211.195312 Z M 123.023438 211.195312 C 122.105469 211.332031 121.265625 212.011719 120.558594 213.046875 C 120.121094 213.6875 119.738281 214.460938 119.425781 215.339844 C 120.539062 215.570312 121.753906 215.707031 123.023438 215.726562 Z M 121.03125 211.441406 C 119.125 211.890625 117.425781 212.875 116.101562 214.230469 C 116.871094 214.613281 117.761719 214.9375 118.738281 215.183594 C 119.078125 214.210938 119.5 213.355469 119.976562 212.652344 C 120.304688 212.175781 120.65625 211.769531 121.03125 211.441406 Z M 125.722656 211.441406 C 126.09375 211.769531 126.445312 212.175781 126.773438 212.652344 C 127.25 213.355469 127.671875 214.210938 128.011719 215.183594 C 128.992188 214.9375 129.878906 214.613281 130.648438 214.230469 C 129.324219 212.878906 127.625 211.890625 125.722656 211.441406 Z M 125.722656 211.441406" fill-rule="evenodd"/></g></svg>